<?xml version="1.0" encoding="UTF-8"?>
<!-- Generator: Adobe Illustrator 26.5.0, SVG Export Plug-In . SVG Version: 6.00 Build 0)  -->
<svg version="1.1" id="Calque_1" xmlns="http://www.w3.org/2000/svg" xmlns:xlink="http://www.w3.org/1999/xlink" x="0px" y="0px" viewBox="0 0 1955 1235" style="enable-background:new 0 0 1955 1235;" xml:space="preserve">
<style type="text/css">
	.st0{fill:#05475C;}
	.st1{fill:url(#Light-animatied_00000153665003102180789100000014920320211427112852_);fill-opacity:0;}
	.st2{opacity:0.34;fill:url(#Light_00000049931444406959558420000011118242387754807726_);enable-background:new    ;}
	.st3{opacity:0.34;fill:url(#SVGID_1_);enable-background:new    ;}
	.st4{opacity:0.34;fill:url(#SVGID_00000092437024792419547230000012470343099200897703_);enable-background:new    ;}
	.st5{opacity:0.34;fill:url(#SVGID_00000053524268638524580230000009562646312345667713_);enable-background:new    ;}
	.st6{opacity:0.34;fill:url(#SVGID_00000003795728901093735210000006093551365008873148_);enable-background:new    ;}
	.st7{opacity:0.34;fill:url(#SVGID_00000103945101433253827050000002378166818813419942_);enable-background:new    ;}
	.st8{opacity:0.34;fill:url(#SVGID_00000145772669841712285070000005211532858817245118_);enable-background:new    ;}
	.st9{opacity:0.34;fill:url(#SVGID_00000025408665891596255860000008918391402547310509_);enable-background:new    ;}
	.st10{opacity:0.71;}
	.st11{fill:#FFFFFF;}
</style>
<g id="Calque_2_00000077317199504027971410000016184948397067180676_">
</g>
<g id="Calque_1_00000081641572645727348200000001620984863325280439_">
	<rect class="st0" width="1955" height="1231.4"/>
	
		<radialGradient id="Light-animatied_00000181056568193152498960000005683703043009260931_" cx="5112.5278" cy="4394.7769" r="1365.8877" gradientTransform="matrix(0.1462 0.4781 0.4781 -0.1462 -1875.7946 -1201.0833)" gradientUnits="userSpaceOnUse">
		<stop offset="0" style="stop-color:#18F5B0"/>
		<stop offset="1" style="stop-color:#05475C;stop-opacity:0"/>
	</radialGradient>
	
		<circle id="Light-animatied" style="fill:url(#Light-animatied_00000181056568193152498960000005683703043009260931_);fill-opacity:0;" cx="972.8" cy="600.7" r="682.7"/>
	
		<radialGradient id="Light_00000087384382474596728320000003433582632716053383_" cx="1345.4283" cy="-1394.8445" r="1365.4" gradientTransform="matrix(0.5 0 0 -0.5 308.2858 -256.0222)" gradientUnits="userSpaceOnUse">
		<stop offset="0" style="stop-color:#18F5B0"/>
		<stop offset="1" style="stop-color:#05475C;stop-opacity:0"/>
	</radialGradient>
	
		<circle id="Light" style="opacity:0.34;fill:url(#Light_00000087384382474596728320000003433582632716053383_);enable-background:new    ;" cx="981" cy="441.4" r="682.7"/>
	<g id="Emerald">
		
			<radialGradient id="SVGID_1_" cx="2429.1433" cy="5022.4121" r="289.2532" gradientTransform="matrix(0.8857 0.4643 -0.4643 0.8857 1256.1138 -4804.7017)" gradientUnits="userSpaceOnUse">
			<stop offset="0" style="stop-color:#18F5B0"/>
			<stop offset="1" style="stop-color:#05475C;stop-opacity:0"/>
		</radialGradient>
		<circle class="st3" cx="1075.7" cy="771.5" r="289.2"/>
		
			<linearGradient id="SVGID_00000081634246945614292130000009160103003297778338_" gradientUnits="userSpaceOnUse" x1="850.5287" y1="4166.1729" x2="1144.8379" y2="4166.1729" gradientTransform="matrix(0.7967 0.6044 -0.6044 0.7967 2791.6482 -3179.5737)">
			<stop offset="0" style="stop-color:#AABDCB"/>
			<stop offset="1" style="stop-color:#05475C;stop-opacity:0"/>
		</linearGradient>
		
			<polygon style="opacity:0.34;fill:url(#SVGID_00000081634246945614292130000009160103003297778338_);enable-background:new    ;" points="    1026.6,844.4 875.5,753.5 1113.1,619.2 1183.7,834.2   "/>
		
			<linearGradient id="SVGID_00000127043305771364115220000007428299675525279651_" gradientUnits="userSpaceOnUse" x1="916.9987" y1="4263.1777" x2="1223.6107" y2="4263.1777" gradientTransform="matrix(0.7967 0.6044 -0.6044 0.7967 2791.6482 -3179.5737)">
			<stop offset="0" style="stop-color:#AABDCB"/>
			<stop offset="1" style="stop-color:#05475C;stop-opacity:0"/>
		</linearGradient>
		
			<polygon style="opacity:0.34;fill:url(#SVGID_00000127043305771364115220000007428299675525279651_);enable-background:new    ;" points="    991.1,711.1 1113.1,619.2 1179.1,970.6 1002.9,1019.4 858.2,983.9   "/>
		
			<linearGradient id="SVGID_00000164493139600312058340000005716472667201800862_" gradientUnits="userSpaceOnUse" x1="-2247.0476" y1="4944.5054" x2="-2027.02" y2="4944.5054" gradientTransform="matrix(0.5032 -0.8642 0.8642 0.5032 -2259.6885 -3551.7617)">
			<stop offset="0" style="stop-color:#AABDCB"/>
			<stop offset="1" style="stop-color:#05475C;stop-opacity:0"/>
		</linearGradient>
		
			<polygon style="opacity:0.34;fill:url(#SVGID_00000164493139600312058340000005716472667201800862_);enable-background:new    ;" points="    1118.3,778.5 1021.9,959.3 875.5,753.5 775.3,742.3 884,682.3 912.7,641.1   "/>
		
			<linearGradient id="SVGID_00000032633230336506068890000011371306122478918816_" gradientUnits="userSpaceOnUse" x1="223.9997" y1="687.1842" x2="569.2056" y2="687.1842" gradientTransform="matrix(-0.4643 0.8857 -0.8857 -0.4643 1855.8643 823.8525)">
			<stop offset="0" style="stop-color:#18F5B0"/>
			<stop offset="1" style="stop-color:#05475C;stop-opacity:0"/>
		</linearGradient>
		
			<polygon style="opacity:0.34;fill:url(#SVGID_00000032633230336506068890000011371306122478918816_);enable-background:new    ;" points="    1162.7,713.4 1160.5,826.9 1002.9,1019.4 1004,812.1   "/>
		
			<linearGradient id="SVGID_00000085951574485715847200000002403569224455768476_" gradientUnits="userSpaceOnUse" x1="3345.584" y1="5233.4712" x2="3676.3613" y2="5233.4712" gradientTransform="matrix(0.6638 0.296 -0.5015 0.8574 1281.8154 -4784.9614)">
			<stop offset="0" style="stop-color:#18F5B0"/>
			<stop offset="1" style="stop-color:#05475C;stop-opacity:0"/>
		</linearGradient>
		
			<polygon style="opacity:0.34;fill:url(#SVGID_00000085951574485715847200000002403569224455768476_);enable-background:new    ;" points="    1117.3,664.7 1035.2,897.1 884,682.3 983.4,631.3   "/>
		
			<linearGradient id="SVGID_00000026855970554098323810000009047357030981075896_" gradientUnits="userSpaceOnUse" x1="-3301.4873" y1="2403.8936" x2="-2952.6897" y2="2403.8936" gradientTransform="matrix(-0.7967 -0.6044 0.6044 -0.7967 -3022.8118 863.3734)">
			<stop offset="0" style="stop-color:#18F5B0"/>
			<stop offset="1" style="stop-color:#05475C;stop-opacity:0"/>
		</linearGradient>
		
			<polygon style="opacity:0.34;fill:url(#SVGID_00000026855970554098323810000009047357030981075896_);enable-background:new    ;" points="    1080,764.8 1002.9,1019.4 858.2,983.9 775.3,742.3 1004,812.1   "/>
	</g>
	<g id="Debian_Logo" transform="translate(34.9)">
		<g class="st10">
			<path class="st11" d="M873.3,459.6c-0.7,0,0.1,0.4,1.1,0.5c0.3-0.2,0.5-0.4,0.7-0.6C874.4,459.6,873.9,459.6,873.3,459.6"/>
			<path class="st11" d="M877.1,458.6c0.4-0.6,0.7-1.2,0.8-1.9c-0.1,0.5-0.4,0.9-0.6,1.3c-1.3,0.8-0.1-0.5,0-1     C875.9,458.9,877.1,458.1,877.1,458.6"/>
			<path class="st11" d="M878.5,455c0.1-1.3-0.3-0.9-0.4-0.4C878.3,454.6,878.4,455.5,878.5,455"/>
			<path class="st11" d="M870.6,437.4c0.4,0.1,0.8,0.1,0.8,0.2C871.7,437.6,871.8,437.5,870.6,437.4"/>
			<path class="st11" d="M871.3,437.6l-0.3,0.1L871.3,437.6L871.3,437.6"/>
			<path class="st11" d="M883.2,455.5c0,1.2-0.3,1.7-0.7,2.7l-0.6,0.3c-0.5,1,0.1,0.6-0.3,1.4c-0.8,0.7-2.4,2.2-2.9,2.3     c-0.4,0,0.3-0.4,0.3-0.6c-1.1,0.7-0.8,1.1-2.5,1.5V463c-4,1.9-9.5-1.8-9.4-6.9c0,0.3-0.1,0.2-0.2,0.4c-0.2-2.6,1.2-5.2,3.6-6.3     c2.3-1.1,5-0.7,6.7,0.9c-0.9-1.2-2.7-2.5-4.9-2.3c-2.1,0-4.1,1.4-4.7,2.8c-1.1,0.7-1.2,2.6-1.7,3c-0.6,4.7,1.2,6.7,4.3,9     c0.5,0.3,0.1,0.4,0.2,0.6c-1-0.5-2-1.2-2.7-2.1c0.4,0.6,0.9,1.2,1.4,1.6c-1-0.3-2.3-2.3-2.6-2.4c1.7,3,6.8,5.2,9.4,4.1     c-1.2,0-2.8,0-4.2-0.5c-0.6-0.3-1.4-0.9-1.2-1c3.6,1.4,7.4,1,10.5-1.5c0.8-0.6,1.7-1.7,1.9-1.7c-0.4,0.6,0.1,0.3-0.2,0.8     c0.8-1.3-0.3-0.5,0.8-2.2l0.4,0.6c-0.2-1.1,1.3-2.4,1.2-4.1c0.3-0.5,0.4,0.6,0,1.7c0.5-1.3,0.1-1.5,0.3-2.6     c0.1,0.4,0.3,0.8,0.4,1.1c-0.3-1.3,0.3-2.1,0.5-2.9c-0.2-0.1-0.5,0.6-0.6-0.9c0-0.7,0.2-0.3,0.2-0.5c-0.1-0.1-0.5-0.6-0.7-1.5     c0.1-0.2,0.4,0.6,0.6,0.6c-0.1-0.8-0.4-1.3-0.4-1.9c-0.6-1.2-0.2,0.2-0.7-0.5c-0.6-2,0.5-0.5,0.6-1.3c1,1.4,1.5,3.5,1.7,4.4     c-0.2-1.1-0.5-2.1-0.9-3.1c0.3,0.1-0.5-2.2,0.4-0.7c-0.9-3.3-3.9-6.4-6.6-7.9c0.3,0.3,0.8,0.7,0.6,0.7c-1.4-0.8-1.1-0.9-1.3-1.2     c-1.1-0.4-1.2,0-1.9,0c-2.1-1.1-2.5-1-4.4-1.7l0.1,0.4c-1.4-0.5-1.6,0.2-3.1,0c-0.1-0.1,0.5-0.3,0.9-0.3c-1.3,0.2-1.3-0.3-2.6,0     c0.3-0.2,0.7-0.4,1-0.6c-1.1,0.1-2.6,0.6-2.1,0.1c-1.8,0.8-4.9,1.9-6.7,3.5l-0.1-0.4c-0.8,1-3.5,2.9-3.7,4.1l-0.2,0.1     c-0.4,0.7-0.7,1.5-1,2.2c-0.5,0.9-0.8,0.4-0.7,0.5c-1.1,2.2-1.6,4-2.1,5.5c0.3,0.5,0,3,0.1,5c-0.5,9.8,6.9,19.3,15,21.5     c1.2,0.4,3,0.4,4.5,0.5c-1.8-0.5-2-0.3-3.7-0.9c-1.2-0.6-1.5-1.3-2.4-2l0.3,0.6c-1.7-0.6-1-0.8-2.4-1.2l0.4-0.5     c-0.6,0-1.5-0.9-1.7-1.4h-0.6c-0.7-0.9-1.1-1.6-1.1-2.1l-0.2,0.4c-0.2-0.4-2.7-3.4-1.4-2.7c-0.2-0.2-0.6-0.4-0.9-1l0.3-0.3     c-0.6-0.8-1.1-1.8-1.1-2.2c0.3,0.4,0.6,0.5,0.8,0.6c-1.6-3.9-1.7-0.2-2.8-4h0.3c-0.2-0.3-0.3-0.6-0.5-0.9l0.1-1.1     c-1.1-1.3-0.3-5.6-0.2-7.9c0.1-0.9,0.9-2,1.6-3.5l-0.4-0.1c0.7-1.3,4.2-5.1,5.8-4.9c0.8-1-0.2,0-0.3-0.2c1.7-1.8,2.2-1.2,3.4-1.6     c1.2-0.7-1.1,0.3-0.5-0.3c2.1-0.5,1.5-1.2,4.3-1.5c0.3,0.2-0.7,0.3-0.9,0.5c1.8-0.9,5.7-0.7,8.2,0.5c2.9,1.4,6.2,5.4,6.3,9.2h0.1     c-0.1,1.5,0.2,3.3-0.3,4.9L883.2,455.5"/>
			<path class="st11" d="M865.5,460.6l-0.1,0.5c0.5,0.6,0.8,1.3,1.4,1.8C866.4,462.1,866.1,461.7,865.5,460.6"/>
			<path class="st11" d="M866.6,460.5c-0.2-0.3-0.4-0.6-0.6-0.9c0.2,0.6,0.5,1.1,0.8,1.6L866.6,460.5"/>
			<path class="st11" d="M886.2,456.3l-0.1,0.3c-0.2,1.4-0.6,2.7-1.2,4C885.5,459.2,886,457.7,886.2,456.3"/>
			<path class="st11" d="M870.7,437.1c0.5-0.2,1.2-0.1,1.7-0.2c-0.7,0.1-1.3,0.1-2,0.2H870.7"/>
			<path class="st11" d="M853.8,446.1c0.1,1-0.8,1.4,0.2,0.7C854.5,445.7,853.8,446.5,853.8,446.1"/>
			<path class="st11" d="M852.7,450.8c0.2-0.7,0.3-1.1,0.3-1.5C852.4,450.1,852.7,450.3,852.7,450.8"/>
		</g>
		<g>
			<g class="st10">
				<path class="st11" d="M923.3,453.4c0,0,0,8.6-0.1,10.8c-0.1,1.8-0.2,5.7-4.1,5.7c-3.9,0-4.9-4.5-5.2-6.5c-0.4-2.2-0.4-4-0.4-4.8      c0-2.6,0.1-9.7,6.2-9.7c1.8,0,2.8,0.5,3.6,1V453.4z M907.8,459.7c0,15,8,15,9.1,15c3.3,0,5.4-1.8,6.3-4.9l0.1,4.7      c1,0,2-0.1,3.7-0.1c0.6,0,1.1,0,1.5,0s0.9,0,1.3,0.1c-0.9-1.7-1.5-5.5-1.5-13.8c0-8.1,0-21.7,0.7-25.9c-1.9,0.9-3.5,1.5-7.2,1.8      c1.5,1.6,1.5,2.3,1.5,9.4c-1-0.3-2.3-0.7-4.5-0.7C909.4,445.2,907.8,453.5,907.8,459.7"/>
				<path class="st11" d="M936.6,457c0-4.4,1-8.3,4.7-8.3c4.1,0,4.5,4.6,4.4,8.3H936.6z M951,457.5c0-6.2-1.2-12.3-9.1-12.3      c-10.8,0-10.8,12-10.8,14.6c0,10.8,4.9,15,13,15c3.6,0,5.4-0.5,6.3-0.8c0-1.9,0.2-3.2,0.5-4.8c-1.1,0.7-2.6,1.6-5.7,1.6      c-8.3,0-8.4-7.6-8.4-10.1h14.1L951,457.5"/>
				<path class="st11" d="M968.3,459.8c0,4.9-0.9,11.6-7.1,11.6c-0.9,0-1.9-0.1-2.6-0.3c-0.1-1.9-0.1-5.2-0.1-9      c0-4.6,0.5-6.9,0.9-8.1c1.1-3.8,3.6-3.8,4.1-3.8C967.5,450.1,968.3,455.7,968.3,459.8z M953,465.6c0,3.9,0,6.2-0.6,7.9      c2.2,0.9,4.9,1.3,8.1,1.3c2.1,0,8.1,0,11.3-6.6c1.6-3.1,2.1-7.2,2.1-10.4c0-1.9-0.2-6.1-1.7-8.8c-1.5-2.5-3.9-3.8-6.4-3.8      c-5.1,0-6.6,4.3-7.4,6.5c0-2.7,0-12.2,0.5-17c-3.4,1.6-5.6,1.8-7.9,2.1c2.1,0.8,2.1,4.4,2.1,15.8L953,465.6"/>
				<path class="st11" d="M984.1,474.4c-1.1-0.1-1.8-0.2-3.3-0.2c-1.7,0-2.9,0.1-4.1,0.2c0.5-1,0.7-1.5,0.9-4.9      c0.2-4.8,0.2-17.4-0.1-20c-0.2-2-0.7-2.3-1.5-2.9c4.4-0.4,5.6-0.7,7.6-1.7c-0.4,2.3-0.5,3.5-0.5,7.1      C983,470.3,983,472.2,984.1,474.4"/>
				<path class="st11" d="M1001.2,459.4c-0.1,3.3-0.1,5.7-1.1,7.6c-1.1,2.4-3,3.1-4.4,3.1c-3.2,0-3.9-2.7-3.9-5.2      c0-5,4.5-5.4,6.5-5.4L1001.2,459.4L1001.2,459.4z M986.6,465.9c0,3.3,1,6.7,4,8.1c1.3,0.6,2.7,0.6,3.1,0.6      c4.9,0,6.5-3.6,7.6-5.9c0,2.3,0,3.8,0.1,5.6c1,0,1.9-0.1,3.5-0.1c0.9,0,1.7,0.1,2.7,0.1c-0.6-0.9-0.9-1.5-1.1-3.5      c-0.1-2-0.1-4-0.1-6.8v-10.8c0-4-1.1-8-9-8c-5.2,0-8.3,1.6-9.9,2.4c0.6,1.2,1.2,2.2,1.6,4.5c2.1-1.8,4.8-2.8,7.6-2.8      c4.4,0,4.4,2.9,4.4,7.1c-1,0-1.8-0.1-3.3-0.1C991,456.2,986.6,458.8,986.6,465.9"/>
				<path class="st11" d="M1031.8,469.2c0,1.8,0,3.7,0.8,5.2c-1.2-0.1-1.8-0.2-4-0.2c-1.3,0-2,0.1-3,0.2c0.2-0.7,0.3-1,0.4-1.8      c0.1-1.2,0.2-5.3,0.2-6.7v-5.7c0-2.5,0-6.1-0.1-7.4c-0.1-0.9-0.4-3.3-3.4-3.3c-3,0-4,2.2-4.4,4s-0.4,3.9-0.4,11.7      c0,6.8,0,7.4,0.6,9.3c-0.9-0.1-2-0.2-3.6-0.2c-1.3,0-2.1,0-3.2,0.2c0.4-0.9,0.6-1.3,0.7-4.3c0.1-2.9,0.3-17.3-0.1-20.7      c-0.2-2.1-0.8-2.6-1.4-3.1c4.3-0.2,5.7-0.9,7-1.6v5.6c0.6-1.6,1.9-5.3,7.3-5.3c6.6,0,6.7,4.9,6.7,8L1031.8,469.2"/>
				<path class="st11" d="M984.6,437.4l-4.4,4.4l-4.4-4.4l4.4-4.4L984.6,437.4"/>
			</g>
		</g>
	</g>
</g>
</svg>
